<?xml version="1.0" encoding="UTF-8"?>
<svg id="Ebene_2" data-name="Ebene 2" xmlns="http://www.w3.org/2000/svg" xmlns:xlink="http://www.w3.org/1999/xlink" viewBox="0 0 211.27 57.95">
  <defs>
    <style>
      .cls-1 {
        fill: url(#Unbenannter_Verlauf);
      }

      .cls-1, .cls-2 {
        stroke-width: 0px;
      }
    </style>
    <linearGradient id="Unbenannter_Verlauf" data-name="Unbenannter Verlauf" x1="0" y1="28.97" x2="49.08" y2="28.97" gradientUnits="userSpaceOnUse">
      <stop offset="0" stop-color="#976ce1"/>
      <stop offset="1" stop-color="#379dee"/>
    </linearGradient>
  </defs>
  <g id="Ebene_1-2" data-name="Ebene 1" fill="#FFFFFF">
    <g>
      <g>
        <path class="cls-2" d="m84.12,17.82c-.35-.11-.73-.1-1.06.03-.35.13-.64.35-.85.64l-5.87,8.4-5.87-8.4c-.21-.28-.5-.5-.85-.63-.34-.13-.75-.13-1.05-.03-.33.1-.6.29-.75.52-.2.26-.3.58-.3.96v11.5h1.39v-11.5c0-.07.01-.18.09-.21,0,0,.02,0,.04,0,.08,0,.2.04.29.17,0,0,5.92,8.46,6.27,8.95.36.49,1.09.51,1.49,0,.57-.75,6.28-8.96,6.28-8.96.1-.15.23-.16.28-.16.03,0,.05,0,.06,0,.07.02.08.14.08.2v11.5h1.39v-11.5c0-.38-.1-.7-.3-.96-.19-.25-.45-.43-.74-.52"/>
        <path class="cls-2" d="m109.11,24.21c.46-.45.72-1.08.72-1.72v-2.29c0-1.37-1.15-2.49-2.56-2.49h-10.48v13.06h.31v.02h10.34c1.41,0,2.56-1.11,2.56-2.47v-2.24c0-.74-.33-1.42-.9-1.88h0Zm-1.66,5.25h-9.27v-4.5h9.27c.66,0,1.19.51,1.19,1.13v2.24c0,.62-.53,1.13-1.19,1.13h0Zm1.01-6.97c0,.62-.53,1.13-1.19,1.13h-9.1v-4.56h9.1c.67,0,1.19.5,1.19,1.15v2.29h0Z"/>
        <path class="cls-2" d="m122.86,17.73h-1.39v13.06h1.39v-13.06Z"/>
        <path class="cls-2" d="m132.88,19.07h5.75v11.72h1.39v-11.72h5.76v-1.34h-12.9v1.34Z"/>
        <path class="cls-2" d="m158.38,17.73h-1.39v13.06h1.39v-13.06Z"/>
        <path class="cls-2" d="m181.72,17.72h-8.24c-2.03,0-3.69,1.61-3.69,3.58v5.94c0,1.96,1.66,3.56,3.69,3.56h8.24c2.03,0,3.69-1.6,3.69-3.56v-5.94c0-1.97-1.65-3.58-3.69-3.58h0Zm0,11.74h-8.24c-1.28,0-2.32-1-2.32-2.22v-5.94c0-1.23,1.04-2.24,2.32-2.24h8.24c1.28,0,2.32,1,2.32,2.24v5.94c0,1.23-1.04,2.22-2.32,2.22"/>
        <path class="cls-2" d="m209.88,17.73v11.57c0,.07-.01.2-.08.22-.01,0-.03,0-.06,0-.04,0-.14-.01-.23-.1l-9.23-10.96c-.2-.3-.51-.53-.83-.63-.33-.13-.75-.13-1.06-.03-.33.1-.6.29-.75.52-.2.26-.3.58-.3.96v11.5h1.39v-11.5c0-.07.01-.18.09-.21,0,0,.02,0,.04,0,.08,0,.2.04.29.16l.13.16h.02l9.01,10.73c.21.29.52.51.85.61.18.07.38.11.58.11.15,0,.3-.02.47-.06.29-.09.55-.27.76-.55.19-.27.29-.6.29-.94v-11.57h-1.39Z"/>
      </g>
      <path class="cls-1" d="m36.88,9.67c.2-.28.37-.56.58-.8.21-.25.44-.49.71-.69.8-.6,1.75-.55,2.5.11.55.48.94,1.07,1.29,1.7.57,1.04,1,2.14,1.39,3.26.02.07.05.14.09.25.06-.1.1-.16.14-.23.37-.63.77-1.24,1.29-1.76.52-.52,1.1-.87,1.87-.72.49.1.84.38,1.12.78.47.69.68,1.47.83,2.27.37,1.93.41,3.88.39,5.83-.02,2.32-.18,4.64-.4,6.95-.14,1.45-.31,2.9-.48,4.35-.14,1.18-.3,2.36-.47,3.53-.03.18-.12.37-.24.51-.16.18-.42.13-.56-.08-.06-.08-.11-.18-.14-.28-1.63-4.61-3.4-9.17-5.32-13.66-.05-.11-.1-.22-.17-.37-.09.23-.17.43-.24.63-1.33,3.44-2.62,6.89-4,10.31-1.02,2.55-2.22,5.03-3.72,7.34-.86,1.34-1.84,2.58-3.09,3.57-.94.74-1.98,1.23-3.2,1.27-1.25.04-2.33-.39-3.24-1.25-1.04-.99-1.75-2.2-2.34-3.49-.98-2.16-1.65-4.42-2.25-6.71-.67-2.54-1.31-5.1-2-7.64-.51-1.9-1.09-3.79-1.99-5.55-.34-.67-.77-1.31-1.22-1.92-.43-.58-1.01-.98-1.73-1.17-.31-.08-.62-.05-.85.16-.32.29-.64.6-.88.96-.62.92-.96,1.97-1.28,3.02-.58,1.93-.98,3.9-1.26,5.89-.32,2.19-.59,4.38-.85,6.58-.17,1.44-.27,2.88-.38,4.32-.14,1.91-.28,3.82-.39,5.72-.1,1.86-.19,3.73-.24,5.6-.09,3.11-.14,6.22-.21,9.33,0,.31-.05.35-.35.34-.5-.01-.49.12-.59-.49-.23-1.45-.47-2.9-.7-4.35-.28-1.79-.57-3.57-.83-5.36-.28-1.85-.54-3.69-.79-5.54-.23-1.67-.45-3.34-.66-5.01-.2-1.56-.38-3.12-.56-4.69-.17-1.49-.34-2.98-.48-4.47-.15-1.56-.29-3.12-.42-4.68-.13-1.61-.25-3.23-.34-4.85C.05,15.66-.07,12.8.04,9.95c.05-1.41.15-2.83.29-4.24.13-1.3.38-2.59.89-3.81.12-.28.26-.55.42-.8C2.37,0,3.49-.29,4.67.31c1.32.67,2.36,1.66,3.27,2.8,1.31,1.65,2.35,3.46,3.32,5.32,1.1,2.12,2.17,4.25,3.26,6.37.78,1.52,1.65,2.99,2.68,4.36.66.88,1.4,1.67,2.3,2.31.73.52,1.55.84,2.45.88,1.32.06,2.34-.5,3.14-1.53.73-.94,1.21-2,1.54-3.12.46-1.57.85-3.15,1.23-4.74.41-1.69.73-3.4,1.36-5.03.26-.66.57-1.29,1.02-1.85.47-.59,1.07-.96,1.83-1.06.55-.07,1.03.14,1.45.44.72.51,1.3,1.17,1.81,1.88.49.68.95,1.4,1.42,2.09.04.07.09.13.14.21Zm-17.9,18.07s-.03.02-.05.03c.49,1.86.98,3.73,1.48,5.59.44,1.64.96,3.24,1.62,4.81.55,1.3,1.19,2.54,2.19,3.56,1.06,1.08,2.31,1.44,3.77,1.01,1.09-.33,1.93-1.03,2.7-1.83,1.02-1.07,1.83-2.29,2.57-3.56,1.59-2.74,2.84-5.64,3.99-8.59,1.18-3.03,2.32-6.07,3.47-9.11.04-.1.02-.24-.02-.33-1.07-2.42-2.19-4.82-3.44-7.16-.09-.17-.19-.33-.29-.53-.04.09-.06.13-.08.18-.38,1.12-.79,2.23-1.13,3.36-.73,2.44-1.41,4.9-2.13,7.34-.63,2.13-1.38,4.2-2.4,6.18-.64,1.25-1.42,2.42-2.49,3.35-1.31,1.14-2.82,1.58-4.53,1.17-1.13-.27-2.01-.97-2.79-1.8-.83-.89-1.47-1.91-2.06-2.96-.13-.24-.26-.47-.39-.71Zm-2.36-7.87h-.03c.02.07.04.14.06.2.33.82.65,1.65.98,2.47.8,1.96,1.61,3.93,2.66,5.77.63,1.1,1.34,2.14,2.29,3,1.81,1.63,4.13,1.57,5.85-.15.56-.56,1.03-1.18,1.45-1.85.8-1.28,1.38-2.67,1.91-4.08.9-2.41,1.57-4.88,2.27-7.35.68-2.4,1.31-4.82,2.31-7.12.03-.07.02-.18-.02-.24-.57-.89-1.12-1.78-1.72-2.65-.44-.64-.94-1.24-1.6-1.68-.62-.41-1.16-.39-1.74.08-.13.1-.25.22-.36.34-.46.56-.75,1.21-.99,1.89-.55,1.53-.87,3.13-1.23,4.71-.36,1.63-.71,3.26-1.26,4.85-.42,1.22-.93,2.4-1.75,3.42-.84,1.04-1.92,1.64-3.25,1.74-1.05.08-2.03-.17-2.94-.71-.91-.53-1.67-1.24-2.36-2.02-.18-.2-.35-.41-.52-.62Zm-12.33,27.55s.03,0,.04,0c0-.1,0-.2,0-.29-.13-2.67-.29-5.34-.38-8.01-.1-3.16-.18-6.33-.21-9.49-.04-4.99.05-9.97.69-14.93.2-1.52.47-3.02.95-4.48.23-.72.52-1.41,1-2.01.67-.83,1.56-1.03,2.49-.49.49.28.92.64,1.38.97.05.04.11.08.16.12-.01-.1-.05-.17-.09-.24-.61-1.06-1.2-2.14-1.85-3.18-.76-1.23-1.65-2.38-2.75-3.33-.51-.44-1.06-.82-1.69-1.06-.62-.24-1.08-.14-1.49.37-.23.29-.43.62-.58.96-.49,1.14-.68,2.35-.82,3.57-.23,2.04-.29,4.09-.27,6.14.03,2.98.16,5.95.4,8.92.14,1.81.28,3.62.45,5.43.18,1.89.37,3.78.59,5.66.33,2.82.68,5.63,1.04,8.45.3,2.32.63,4.63.95,6.95Zm.97.22s.01,0,.02,0c0-.06,0-.12.01-.18.12-2.32.21-4.64.36-6.95.18-2.61.39-5.23.63-7.83.26-2.87.64-5.73,1.18-8.56.35-1.87.77-3.73,1.44-5.52.34-.91.73-1.78,1.36-2.53.82-.98,1.78-1.18,2.92-.58.28.14.53.33.82.51-.02-.05-.03-.09-.05-.13-.52-1.03-1.01-2.07-1.56-3.08-.66-1.21-1.45-2.33-2.46-3.28-.5-.47-1.05-.89-1.68-1.16-.34-.15-.66-.1-.95.14-.11.1-.22.2-.32.32-.44.55-.68,1.2-.88,1.86-.52,1.71-.75,3.47-.94,5.23-.28,2.62-.39,5.26-.45,7.89-.08,3.67-.08,7.34.04,11,.13,3.73.27,7.45.42,11.18.02.55.06,1.11.1,1.66Zm41.97-16.4s.04,0,.06,0c.14-1.25.29-2.49.4-3.74.14-1.51.26-3.03.36-4.55.12-1.99.19-3.99.1-5.98-.05-1.14-.13-2.27-.4-3.38-.14-.59-.31-1.17-.71-1.64-.24-.28-.53-.42-.9-.3-.4.13-.71.41-.94.75-.47.71-.9,1.44-1.34,2.17-.04.07-.04.19-.02.27.09.33.19.66.28,1,.74,2.62,1.33,5.28,1.83,7.96.38,2.05.71,4.1,1.06,6.16.07.43.14.86.21,1.28Zm-6-12.93c.05-.11.08-.18.1-.24.39-.91.74-1.85,1.19-2.73.29-.56.29-1.04.08-1.61-.46-1.21-.87-2.45-1.55-3.56-.26-.43-.59-.84-.95-1.2-.49-.49-.96-.48-1.51-.04-.11.08-.21.17-.29.28-.27.39-.52.79-.79,1.18-.09.13-.08.25,0,.39,1.1,1.94,2.08,3.95,3.02,5.98.23.5.45,1,.71,1.54Zm4.96,12.19c.09-1.22-2.39-13.36-2.96-14.6-.02.04-.04.07-.06.1-.46,1.11-.93,2.22-1.39,3.33-.03.08,0,.19.03.27,1.27,3.14,2.54,6.27,3.81,9.4.19.48.37.96.57,1.49Z"/>
    </g>
  </g>
</svg>